:SAMPLES-PER-SECOND 30
:FULLY-SPECIFIED
:DEGREES
1
root  78.431 40.4615 -4.35736 -155.221 -88.8039 157.348
RightUpLeg  0.21952 -8.79435 -7.81921
RightLeg  0.928757 -2.90237 3.27652
RightFoot  -0.81073 -0.140404 1.51662
RightToes  1.74622e-010 0 -3.6325e-017
Spine  1.26987 -0.363732 1.6701
Spine1  2.78094 0.128644 -2.58807
HEad  -6.64776 3.37597 0.49255
LeftShoulder1  0.643185 0.0758917 -11.4181
LeftArm  -18.1583 6.97885 -0.538631
LeftForeArm  6.00035 0.177251 -1.51429
LeftHand  -0.244104 0.0205437 5.32207
RightShoulder  0.471811 -0.438146 7.78282
RightArm  -20.2257 -1.052 0.471237
RightForeArm  1.521 0.527441 3.0381
RightHand  -0.923604 3.09938 -12.8239
LeftUpLeg  -0.989417 5.36413 3.27332
LeftLeg  1.20579 13.1416 -4.17894
LeftFoot  -1.9094 0.0445755 -0.306159
LeftToes  -5.82109e-011 8.55049e-011 -1.09726e-011
2
root  78.4101 40.4615 -4.36729 -155.539 -88.7151 157.682
RightUpLeg  0.195936 -8.80523 -7.8346
RightLeg  0.975397 -2.79627 3.26294
RightFoot  -0.82755 -0.138768 1.49123
RightToes  1.74622e-010 0 -3.6325e-017
Spine  1.57795 -0.302681 1.66487
Spine1  2.20404 0.186485 -2.59255
HEad  -6.41123 3.17209 0.547833
LeftShoulder1  0.690893 -0.146579 -11.6107
LeftArm  -17.911 7.13722 -0.222956
LeftForeArm  6.15168 0.14626 -1.58144
LeftHand  -0.244104 0.0205437 5.32207
RightShoulder  0.471066 -0.44689 7.92177
RightArm  -20.1247 -1.08208 0.259013
RightForeArm  2.34597 0.403808 2.99029
RightHand  -0.963361 3.51346 -12.7655
LeftUpLeg  -0.941511 5.29484 3.22536
LeftLeg  1.15416 13.2901 -4.127
LeftFoot  -1.92281 0.0462757 -0.33258
LeftToes  -5.82109e-011 8.55049e-011 -1.09726e-011
3
root  78.369 40.4615 -4.39041 -156.99 -88.5266 159.14
RightUpLeg  0.187954 -8.79697 -7.83543
RightLeg  1.03595 -2.6134 3.23654
RightFoot  -0.892382 -0.138073 1.48044
RightToes  1.74622e-010 0 -3.6325e-017
Spine  1.96727 -0.208694 1.62176
Spine1  1.52281 0.272216 -2.57141
HEad  -6.04916 3.02873 0.545797
LeftShoulder1  0.748266 -0.409923 -11.8412
LeftArm  -17.5712 7.41059 0.199044
LeftForeArm  6.1082 0.063917 -1.68026
LeftHand  -0.244104 0.0205437 5.32207
RightShoulder  0.464114 -0.513162 8.02246
RightArm  -19.9059 -1.10209 0.102544
RightForeArm  2.43643 0.365311 3.03623
RightHand  -0.981205 3.56983 -12.9213
LeftUpLeg  -0.795059 5.31699 3.23763
LeftLeg  1.02782 13.4402 -4.1811
LeftFoot  -1.93862 0.0464273 -0.334938
LeftToes  -5.82109e-011 8.55049e-011 -1.09726e-011
4
root  78.3281 40.4615 -4.41635 -158.719 -88.3561 160.878
RightUpLeg  0.209562 -8.7635 -7.80392
RightLeg  1.03853 -2.48042 3.21018
RightFoot  -0.949358 -0.138069 1.48038
RightToes  1.74622e-010 0 -3.6325e-017
Spine  2.06575 -0.144693 1.64471
Spine1  1.4313 0.352458 -2.64607
HEad  -5.93355 2.92158 0.528369
LeftShoulder1  0.770193 -0.519575 -11.8714
LeftArm  -17.3231 7.57847 0.388478
LeftForeArm  5.71041 -0.020652 -1.77974
LeftHand  -0.244104 0.0205437 5.32207
RightShoulder  0.456862 -0.563622 8.04384
RightArm  -19.6435 -1.24145 0.0502007
RightForeArm  1.3075 0.645125 3.20571
RightHand  -0.935146 2.95173 -13.198
LeftUpLeg  -0.661874 5.40544 3.30496
LeftLeg  0.933735 13.5097 -4.27537
LeftFoot  -1.95043 0.0471758 -0.346569
LeftToes  -5.82109e-011 8.55049e-011 -1.09726e-011
5
root  78.2977 40.4615 -4.43462 -159.82 -88.2885 161.987
RightUpLeg  0.25567 -8.73165 -7.76172
RightLeg  0.994918 -2.44178 3.2019
RightFoot  -0.958381 -0.134965 1.43221
RightToes  1.74622e-010 0 -3.6325e-017
Spine  2.20885 -0.150314 1.76604
Spine1  1.31323 0.377628 -2.81135
HEad  -5.76491 2.81665 0.52331
LeftShoulder1  0.794365 -0.633885 -11.9391
LeftArm  -17.0768 7.68077 0.625821
LeftForeArm  5.48318 -0.0883343 -1.87815
LeftHand  -0.244104 0.0205437 5.32207
RightShoulder  0.483209 -0.42654 8.22753
RightArm  -19.3456 -1.51159 -0.280357
RightForeArm  0.63083 0.989361 3.34906
RightHand  -0.892793 2.50574 -13.2921
LeftUpLeg  -0.586849 5.44517 3.3525
LeftLeg  0.888514 13.5406 -4.29775
LeftFoot  -1.96829 0.0498615 -0.388308
LeftToes  -5.82109e-011 8.55049e-011 -1.09726e-011
6
root  78.2732 40.461 -4.44565 -160.55 -88.2779 162.706
RightUpLeg  0.306997 -8.71772 -7.72964
RightLeg  0.991912 -2.43519 3.20221
RightFoot  -0.981369 -0.129472 1.35275
RightToes  1.74622e-010 0 -3.6325e-017
Spine  2.36342 -0.208529 1.99334
Spine1  1.19393 0.377782 -3.12215
HEad  -5.54385 2.72233 0.568741
LeftShoulder1  0.796757 -0.672136 -11.8098
LeftArm  -17.0915 7.67092 0.608044
LeftForeArm  5.78363 -0.0789375 -1.86092
LeftHand  -0.244104 0.0205437 5.32207
RightShoulder  0.503546 -0.349625 8.52311
RightArm  -19.2885 -1.54439 -0.589051
RightForeArm  1.10728 1.03335 3.33534
RightHand  -0.91795 2.77542 -13.2282
LeftUpLeg  -0.51181 5.45222 3.38023
LeftLeg  0.844679 13.5667 -4.29066
LeftFoot  -2.01115 0.0507584 -0.402246
LeftToes  -5.82109e-011 8.55049e-011 -1.09726e-011
7
root  78.2473 40.4583 -4.45571 -161.421 -88.2314 163.547
RightUpLeg  0.334902 -8.70649 -7.70728
RightLeg  1.07233 -2.3978 3.18905
RightFoot  -1.07245 -0.126634 1.33069
RightToes  1.74622e-010 0 -3.6325e-017
Spine  2.54127 -0.254263 2.07659
Spine1  1.05996 0.350734 -3.22925
HEad  -5.34044 2.71303 0.547137
LeftShoulder1  0.771972 -0.557504 -11.7267
LeftArm  -17.3035 7.54819 0.474409
LeftForeArm  6.17602 -0.00502194 -1.76922
LeftHand  -0.244104 0.0205437 5.32207
RightShoulder  0.496354 -0.413744 8.63057
RightArm  -19.3776 -1.34795 -0.617114
RightForeArm  1.49125 0.937992 3.29611
RightHand  -0.962771 3.15748 -13.2649
LeftUpLeg  -0.424531 5.50122 3.42439
LeftLeg  0.838568 13.5873 -4.3201
LeftFoot  -2.07392 0.0484251 -0.365984
LeftToes  -5.82109e-011 8.55049e-011 -1.09726e-011
8
root  78.2195 40.4544 -4.4641 -161.815 -88.1602 163.92
RightUpLeg  0.328223 -8.68929 -7.70205
RightLeg  1.19409 -2.34755 3.15738
RightFoot  -1.18305 -0.128221 1.37448
RightToes  1.74622e-010 0 -3.6325e-017
Spine  2.65934 -0.264396 1.87407
Spine1  1.03941 0.276707 -2.90467
HEad  -5.25535 2.82051 0.372741
LeftShoulder1  0.744566 -0.369745 -11.9506
LeftArm  -17.4961 7.41833 0.439433
LeftForeArm  6.34246 -0.0595256 -1.71143
LeftHand  -0.244104 0.0205437 5.32207
RightShoulder  0.482616 -0.465106 8.4301
RightArm  -19.5479 -1.25648 -0.440304
RightForeArm  1.14517 1.06641 3.29601
RightHand  -0.957983 3.02293 -13.4039
LeftUpLeg  -0.374015 5.56633 3.45958
LeftLeg  0.909806 13.5889 -4.35411
LeftFoot  -2.1398 0.0479811 -0.359084
LeftToes  -5.82109e-011 8.55049e-011 -1.09726e-011
9
root  78.1934 40.4506 -4.46405 -160.996 -88.1436 163.119
RightUpLeg  0.277558 -8.70661 -7.73954
RightLeg  1.34775 -2.29579 3.1395
RightFoot  -1.29427 -0.129801 1.41677
RightToes  1.74622e-010 0 -3.6325e-017
Spine  2.62923 -0.298256 1.55254
Spine1  1.22995 0.139093 -2.36284
HEad  -5.31766 3.00839 0.11085
LeftShoulder1  0.737864 -0.267868 -12.3168
LeftArm  -17.7355 7.55122 0.308422
LeftForeArm  6.94441 -0.643166 -1.65878
LeftHand  -0.244104 0.0205437 5.32207
RightShoulder  0.485948 -0.408258 8.22416
RightArm  -20.0281 -1.34937 -0.205774
RightForeArm  0.735801 1.47249 3.21916
RightHand  -0.953156 2.79989 -13.6845
LeftUpLeg  -0.381557 5.57601 3.4452
LeftLeg  1.00291 13.5607 -4.35415
LeftFoot  -2.27145 0.0535513 -0.445649
LeftToes  -5.82109e-011 8.55049e-011 -1.09726e-011
10
root  78.1731 40.4386 -4.45256 -160.364 -88.1598 162.528
RightUpLeg  0.154214 -8.80119 -7.81999
RightLeg  1.63405 -2.14533 3.17697
RightFoot  -1.52844 -0.134114 1.50071
RightToes  1.74622e-010 0 -3.6325e-017
Spine  2.55844 -0.389214 1.37088
Spine1  1.54152 -0.0289443 -1.94592
HEad  -5.5125 3.29696 -0.13186
LeftShoulder1  0.739425 -0.233179 -12.5605
LeftArm  -18.356 8.12654 -0.382924
LeftForeArm  8.77505 -2.12476 -1.49692
LeftHand  -0.244104 0.0205437 5.32207
RightShoulder  0.502776 -0.327767 8.37314
RightArm  -20.8933 -1.55076 0.232161
RightForeArm  -0.103955 2.35442 3.12589
RightHand  -1.05028 3.09648 -14.5288
LeftUpLeg  -0.464255 5.56044 3.4244
LeftLeg  1.18918 13.5192 -4.32214
LeftFoot  -2.62351 0.0634641 -0.599704
LeftToes  -5.82109e-011 8.55049e-011 -1.09726e-011
11
root  78.1637 40.4099 -4.4326 -162.72 -88.0603 164.847
RightUpLeg  -0.0358982 -8.91429 -7.8856
RightLeg  2.16852 -1.79963 3.23567
RightFoot  -1.98342 -0.149581 1.75753
RightToes  1.74622e-010 0 -3.6325e-017
Spine  2.72908 -0.447082 1.43144
Spine1  1.799 -0.114796 -1.77019
HEad  -5.77637 3.66096 -0.320322
LeftShoulder1  0.753642 -0.23049 -12.9938
LeftArm  -19.4299 9.00747 -1.61323
LeftForeArm  11.6215 -4.57232 -1.27795
LeftHand  -0.244104 0.0205437 5.32207
RightShoulder  0.544041 -0.17971 8.97101
RightArm  -21.7296 -2.27569 1.06598
RightForeArm  -2.82029 4.52974 3.36331
RightHand  -1.25256 3.68352 -16.178
LeftUpLeg  -0.640276 5.62101 3.48188
LeftLeg  1.76662 13.5229 -4.21917
LeftFoot  -3.26636 0.0772362 -0.813743
LeftToes  -5.82109e-011 8.55049e-011 -1.09726e-011
